<svg xmlns="http://www.w3.org/2000/svg" xmlns:xlink="http://www.w3.org/1999/xlink" preserveAspectRatio="xMidYMid" width="152.437" height="33.938" viewBox="0 0 152.437 33.938">
  <defs>
    <style>
      .cls-1 {
        fill: #fff;
        fill-rule: evenodd;
      }
    </style>
  </defs>
  <path d="M146.203,27.135 L146.203,1.163 L152.433,1.163 L152.433,27.135 L146.203,27.135 ZM129.648,19.330 C130.243,21.465 131.819,22.655 133.954,22.655 C135.564,22.655 137.139,21.990 138.399,20.730 L141.655,23.985 C139.729,26.155 136.894,27.345 133.394,27.345 C127.198,27.345 123.383,23.530 123.383,17.754 C123.383,11.874 127.338,7.988 133.254,7.988 C139.869,7.988 143.230,12.434 142.810,19.330 L129.648,19.330 ZM133.289,12.364 C131.258,12.364 129.928,13.834 129.508,16.004 L136.789,16.004 C136.789,13.834 135.389,12.364 133.289,12.364 ZM123.385,27.135 L116.209,27.135 L112.849,21.360 L109.104,27.135 L102.243,27.135 L108.684,17.439 L102.663,8.198 L109.804,8.198 L112.849,13.519 L116.139,8.198 L122.965,8.198 L116.979,17.439 L123.385,27.135 ZM93.564,8.198 L99.759,8.198 L99.759,27.135 L93.564,27.135 L93.564,8.198 ZM96.679,5.713 C95.034,5.713 93.844,4.523 93.844,2.878 C93.844,1.198 95.034,0.008 96.679,0.008 C98.324,0.008 99.514,1.198 99.514,2.878 C99.514,4.523 98.324,5.713 96.679,5.713 ZM81.665,27.345 C79.250,27.345 77.290,26.400 75.960,24.685 L75.960,33.926 L69.729,33.926 L69.729,8.198 L75.960,8.198 L75.960,10.649 C77.290,8.933 79.180,7.988 81.525,7.988 C86.811,7.988 90.346,11.874 90.346,17.754 C90.346,23.530 86.916,27.345 81.665,27.345 ZM79.985,12.889 C77.605,12.889 75.960,14.814 75.960,17.614 C75.960,20.415 77.605,22.305 79.985,22.305 C82.435,22.305 84.080,20.415 84.080,17.614 C84.080,14.814 82.435,12.889 79.985,12.889 ZM58.599,8.198 L64.795,8.198 L64.795,27.135 L58.599,27.135 L58.599,8.198 ZM61.715,5.713 C60.069,5.713 58.879,4.523 58.879,2.878 C58.879,1.198 60.069,0.008 61.715,0.008 C63.360,0.008 64.550,1.198 64.550,2.878 C64.550,4.523 63.360,5.713 61.715,5.713 ZM47.436,24.685 C46.141,26.435 44.215,27.380 41.835,27.380 C36.515,27.380 33.014,23.460 33.014,17.579 C33.014,11.804 36.480,7.988 41.695,7.988 C44.145,7.988 46.106,8.968 47.436,10.684 L47.436,1.163 L53.666,1.163 L53.666,27.135 L47.436,27.135 L47.436,24.685 ZM43.375,13.029 C40.925,13.029 39.280,14.954 39.280,17.754 C39.280,20.555 40.925,22.480 43.375,22.480 C45.791,22.480 47.436,20.555 47.436,17.754 C47.436,14.919 45.791,13.029 43.375,13.029 ZM24.126,16.984 C24.126,14.849 22.866,13.519 20.906,13.519 C18.805,13.554 17.440,14.989 17.195,17.124 L17.195,27.135 L10.965,27.135 L10.965,8.198 L17.195,8.198 L17.195,11.279 C18.525,9.108 20.696,7.953 23.461,7.953 C27.591,7.953 30.322,10.754 30.322,15.199 L30.322,27.135 L24.126,27.135 L24.126,16.984 ZM0.010,8.198 L6.206,8.198 L6.206,27.135 L0.010,27.135 L0.010,8.198 ZM3.125,5.713 C1.480,5.713 0.290,4.523 0.290,2.878 C0.290,1.198 1.480,0.008 3.125,0.008 C4.770,0.008 5.961,1.198 5.961,2.878 C5.961,4.523 4.770,5.713 3.125,5.713 Z" class="cls-1"/>
</svg>
