<svg xmlns="http://www.w3.org/2000/svg" xmlns:xlink="http://www.w3.org/1999/xlink" preserveAspectRatio="xMidYMid" width="388" height="814" viewBox="0 0 388 814">
  <defs>
    <style>
      .cls-1 {
        fill: url(#linear-gradient-1);
        fill-rule: evenodd;
      }
    </style>

    <linearGradient id="linear-gradient-1" gradientUnits="userSpaceOnUse" x1="326.242" y1="814" x2="61.758">
      <stop offset="0"/>
      <stop offset="1" stop-color="#352626"/>
    </linearGradient>
  </defs>
  <path d="M370.677,796.716 C359.508,807.862 344.659,814.000 328.867,814.000 L59.133,814.000 C43.340,814.000 28.492,807.862 17.323,796.716 C6.152,785.568 0.000,770.744 0.000,754.978 L0.000,59.023 C0.000,43.255 6.152,28.432 17.323,17.285 C28.493,6.138 43.340,-0.000 59.133,-0.000 L328.867,-0.000 C344.659,-0.000 359.507,6.138 370.677,17.285 C381.848,28.432 388.000,43.255 388.000,59.023 L388.000,754.978 C388.000,770.744 381.848,785.568 370.677,796.716 ZM193.745,787.036 C212.728,787.036 228.115,771.662 228.115,752.695 C228.115,733.731 212.728,718.355 193.745,718.355 C174.763,718.355 159.375,733.731 159.375,752.695 C159.375,771.662 174.763,787.036 193.745,787.036 ZM193.491,32.882 C188.718,32.882 184.835,36.762 184.835,41.530 C184.835,46.299 188.718,50.179 193.491,50.179 C198.263,50.179 202.147,46.299 202.147,41.530 C202.147,36.762 198.263,32.882 193.491,32.882 ZM220.987,68.681 L164.976,68.681 C163.011,68.681 161.412,70.279 161.412,72.242 C161.412,74.206 163.011,75.804 164.976,75.804 L220.987,75.804 C222.952,75.804 224.551,74.206 224.551,72.242 C224.551,70.279 222.952,68.681 220.987,68.681 ZM356.430,118.030 L30.551,118.030 L30.551,695.970 L356.430,695.970 L356.430,118.030 ZM193.745,722.425 C210.451,722.425 224.042,736.004 224.042,752.695 C224.042,769.387 210.451,782.966 193.745,782.966 C177.040,782.966 163.449,769.387 163.449,752.695 C163.449,736.004 177.040,722.425 193.745,722.425 Z" class="cls-1"/>
</svg>
